============================= test session starts ==============================
platform darwin -- Python 3.12.11, pytest-8.4.1, pluggy-1.6.0 -- /Users/appledev/Working/tldw_server/.venv/bin/python
cachedir: .pytest_cache
hypothesis profile 'default'
rootdir: /Users/appledev/Working/tldw_server
configfile: pyproject.toml
plugins: hypothesis-6.138.0, asyncio-1.1.0, xdist-3.8.0, anyio-4.10.0, mock-3.14.1
asyncio: mode=Mode.AUTO, asyncio_default_fixture_loop_scope=function, asyncio_default_test_loop_scope=function
collecting ... collected 32 items

tldw_Server_API/tests/e2e/test_full_user_workflow.py::TestFullUserWorkflow::test_01_health_check PASSED [  3%]
tldw_Server_API/tests/e2e/test_full_user_workflow.py::TestFullUserWorkflow::test_02_user_registration PASSED [  6%]
tldw_Server_API/tests/e2e/test_full_user_workflow.py::TestFullUserWorkflow::test_03_user_login SKIPPED [  9%]
tldw_Server_API/tests/e2e/test_full_user_workflow.py::TestFullUserWorkflow::test_04_get_user_profile PASSED [ 12%]
tldw_Server_API/tests/e2e/test_full_user_workflow.py::TestFullUserWorkflow::test_10_upload_text_document FAILED [ 15%]
tldw_Server_API/tests/e2e/test_full_user_workflow.py::TestFullUserWorkflow::test_11_upload_pdf_document FAILED [ 18%]
tldw_Server_API/tests/e2e/test_full_user_workflow.py::TestFullUserWorkflow::test_12_process_web_content PASSED [ 21%]
tldw_Server_API/tests/e2e/test_full_user_workflow.py::TestFullUserWorkflow::test_13_upload_audio_file FAILED [ 25%]
tldw_Server_API/tests/e2e/test_full_user_workflow.py::TestFullUserWorkflow::test_14_list_media_items PASSED [ 28%]
tldw_Server_API/tests/e2e/test_full_user_workflow.py::TestFullUserWorkflow::test_20_get_media_details SKIPPED [ 31%]
tldw_Server_API/tests/e2e/test_full_user_workflow.py::TestFullUserWorkflow::test_30_simple_chat_completion PASSED [ 34%]
tldw_Server_API/tests/e2e/test_full_user_workflow.py::TestFullUserWorkflow::test_31_chat_with_context SKIPPED [ 37%]
tldw_Server_API/tests/e2e/test_full_user_workflow.py::TestFullUserWorkflow::test_40_create_note PASSED [ 40%]
tldw_Server_API/tests/e2e/test_full_user_workflow.py::TestFullUserWorkflow::test_41_list_notes FAILED [ 43%]
tldw_Server_API/tests/e2e/test_full_user_workflow.py::TestFullUserWorkflow::test_42_update_note FAILED [ 46%]
tldw_Server_API/tests/e2e/test_full_user_workflow.py::TestFullUserWorkflow::test_43_search_notes FAILED [ 50%]
tldw_Server_API/tests/e2e/test_full_user_workflow.py::TestFullUserWorkflow::test_50_create_prompt FAILED [ 53%]
tldw_Server_API/tests/e2e/test_full_user_workflow.py::TestFullUserWorkflow::test_51_list_prompts FAILED [ 56%]
tldw_Server_API/tests/e2e/test_full_user_workflow.py::TestFullUserWorkflow::test_60_import_character PASSED [ 59%]
tldw_Server_API/tests/e2e/test_full_user_workflow.py::TestFullUserWorkflow::test_61_list_characters SKIPPED [ 62%]
tldw_Server_API/tests/e2e/test_full_user_workflow.py::TestFullUserWorkflow::test_70_search_media_content SKIPPED [ 65%]
tldw_Server_API/tests/e2e/test_full_user_workflow.py::TestFullUserWorkflow::test_80_evaluation_placeholder PASSED [ 68%]
tldw_Server_API/tests/e2e/test_full_user_workflow.py::TestFullUserWorkflow::test_90_export_placeholder PASSED [ 71%]
tldw_Server_API/tests/e2e/test_full_user_workflow.py::TestFullUserWorkflow::test_100_delete_notes PASSED [ 75%]
tldw_Server_API/tests/e2e/test_full_user_workflow.py::TestFullUserWorkflow::test_101_delete_prompts PASSED [ 78%]
tldw_Server_API/tests/e2e/test_full_user_workflow.py::TestFullUserWorkflow::test_102_delete_characters PASSED [ 81%]
tldw_Server_API/tests/e2e/test_full_user_workflow.py::TestFullUserWorkflow::test_103_delete_media PASSED [ 84%]
tldw_Server_API/tests/e2e/test_full_user_workflow.py::TestFullUserWorkflow::test_104_logout PASSED [ 87%]
tldw_Server_API/tests/e2e/test_full_user_workflow.py::TestFullUserWorkflow::test_105_performance_summary PASSED [ 90%]
tldw_Server_API/tests/e2e/test_full_user_workflow.py::TestAdvancedScenarios::test_research_workflow PASSED [ 93%]
tldw_Server_API/tests/e2e/test_full_user_workflow.py::TestAdvancedScenarios::test_content_creation_workflow PASSED [ 96%]
tldw_Server_API/tests/e2e/test_full_user_workflow.py::TestAdvancedScenarios::test_media_processing_workflow PASSED [100%]

=================================== FAILURES ===================================
______________ TestFullUserWorkflow.test_10_upload_text_document _______________
tldw_Server_API/tests/e2e/test_full_user_workflow.py:177: in test_10_upload_text_document
    assert "media_id" in response or "id" in response
E   assert ('media_id' in {'results': [{'status': 'Success', 'input_ref': 'tmp3uvyfb_m.txt', 'processing_source': '/var/folders/qc/m53gw5bs70q_xf10fz52dlmw0000gn/T/media_processing_8stn3lvh/tmp3uvyfb_m.txt', 'media_type': 'document', 'metadata': {'title': 'E2E Test Document', 'author': 'Unknown', 'source_filename': 'tmp3uvyfb_m.txt', 'raw': {'extracted_title': None, 'extracted_author': 'Unknown'}}, 'content': '# Sample Document for E2E Testing\n\n This is a test document created for end-to-end testing of the tldw_server API.\n\n ## Introduction\n The purpose of this document is to provide realistic content for testing various\n features including transcription, analysis, and search functionality.\n\n ## Key Topics\n - Natural Language Processing\n - Machine Learning Applications\n - Document Analysis\n - Information Retrieval\n\n ## Technical Details\n This system uses advanced AI techniques to process and understand content.\n The main components include:\n 1. Text extraction and parsing\n 2. Semantic analysis\n 3. Entity recognition\n 4. Summarization\n\n ## Conclusion\n This test content should be sufficient for validating the core functionality\n of the system during end-to-end testing.\n\n Keywords: testing, documentation, AI, NLP, machine learning', 'segments': None, 'chunks': [{'text': '# Sample Document for E2E Testing\n\n This is a test document created for end-to-end testing of the tldw_server API. ## Introduction\n The purpose of this document is to provide realistic content for testing various\n features including transcription, analysis, and search functionality. ## Key Topics\n - Natural Language Processing\n - Machine Learning Applications\n - Document Analysis\n - Information Retrieval\n\n ## Technical Details\n This system uses advanced AI techniques to process and understand content. The main components include:\n 1. Text extraction and parsing\n 2. Semantic analysis\n 3. Entity recognition\n 4. Summarization\n\n ## Conclusion\n This test content should be sufficient for validating the core functionality\n of the system during end-to-end testing. Keywords: testing, documentation, AI, NLP, machine learning', 'metadata': {'index': 0, 'start_index': 0, 'end_index': 826, 'word_count': 115, 'language': 'en'}}], 'analysis': None, 'summary': None, 'analysis_details': {'analysis_model': None, 'custom_prompt_used': None, 'system_prompt_used': None, 'summarized_recursively': False, 'parser_used': 'txt'}, 'error': None, 'warnings': None, 'db_id': None, 'db_message': "Media 'E2E Test Document' already exists. Overwrite not enabled.", 'message': None, 'source_format': 'txt', 'keywords': [], 'media_uuid': None, 'transcript': '# Sample Document for E2E Testing\n\n This is a test document created for end-to-end testing of the tldw_server API.\n\n ## Introduction\n The purpose of this document is to provide realistic content for testing various\n features including transcription, analysis, and search functionality.\n\n ## Key Topics\n - Natural Language Processing\n - Machine Learning Applications\n - Document Analysis\n - Information Retrieval\n\n ## Technical Details\n This system uses advanced AI techniques to process and understand content.\n The main components include:\n 1. Text extraction and parsing\n 2. Semantic analysis\n 3. Entity recognition\n 4. Summarization\n\n ## Conclusion\n This test content should be sufficient for validating the core functionality\n of the system during end-to-end testing.\n\n Keywords: testing, documentation, AI, NLP, machine learning'}]} or 'id' in {'results': [{'status': 'Success', 'input_ref': 'tmp3uvyfb_m.txt', 'processing_source': '/var/folders/qc/m53gw5bs70q_xf10fz52dlmw0000gn/T/media_processing_8stn3lvh/tmp3uvyfb_m.txt', 'media_type': 'document', 'metadata': {'title': 'E2E Test Document', 'author': 'Unknown', 'source_filename': 'tmp3uvyfb_m.txt', 'raw': {'extracted_title': None, 'extracted_author': 'Unknown'}}, 'content': '# Sample Document for E2E Testing\n\n This is a test document created for end-to-end testing of the tldw_server API.\n\n ## Introduction\n The purpose of this document is to provide realistic content for testing various\n features including transcription, analysis, and search functionality.\n\n ## Key Topics\n - Natural Language Processing\n - Machine Learning Applications\n - Document Analysis\n - Information Retrieval\n\n ## Technical Details\n This system uses advanced AI techniques to process and understand content.\n The main components include:\n 1. Text extraction and parsing\n 2. Semantic analysis\n 3. Entity recognition\n 4. Summarization\n\n ## Conclusion\n This test content should be sufficient for validating the core functionality\n of the system during end-to-end testing.\n\n Keywords: testing, documentation, AI, NLP, machine learning', 'segments': None, 'chunks': [{'text': '# Sample Document for E2E Testing\n\n This is a test document created for end-to-end testing of the tldw_server API. ## Introduction\n The purpose of this document is to provide realistic content for testing various\n features including transcription, analysis, and search functionality. ## Key Topics\n - Natural Language Processing\n - Machine Learning Applications\n - Document Analysis\n - Information Retrieval\n\n ## Technical Details\n This system uses advanced AI techniques to process and understand content. The main components include:\n 1. Text extraction and parsing\n 2. Semantic analysis\n 3. Entity recognition\n 4. Summarization\n\n ## Conclusion\n This test content should be sufficient for validating the core functionality\n of the system during end-to-end testing. Keywords: testing, documentation, AI, NLP, machine learning', 'metadata': {'index': 0, 'start_index': 0, 'end_index': 826, 'word_count': 115, 'language': 'en'}}], 'analysis': None, 'summary': None, 'analysis_details': {'analysis_model': None, 'custom_prompt_used': None, 'system_prompt_used': None, 'summarized_recursively': False, 'parser_used': 'txt'}, 'error': None, 'warnings': None, 'db_id': None, 'db_message': "Media 'E2E Test Document' already exists. Overwrite not enabled.", 'message': None, 'source_format': 'txt', 'keywords': [], 'media_uuid': None, 'transcript': '# Sample Document for E2E Testing\n\n This is a test document created for end-to-end testing of the tldw_server API.\n\n ## Introduction\n The purpose of this document is to provide realistic content for testing various\n features including transcription, analysis, and search functionality.\n\n ## Key Topics\n - Natural Language Processing\n - Machine Learning Applications\n - Document Analysis\n - Information Retrieval\n\n ## Technical Details\n This system uses advanced AI techniques to process and understand content.\n The main components include:\n 1. Text extraction and parsing\n 2. Semantic analysis\n 3. Entity recognition\n 4. Summarization\n\n ## Conclusion\n This test content should be sufficient for validating the core functionality\n of the system during end-to-end testing.\n\n Keywords: testing, documentation, AI, NLP, machine learning'}]})
_______________ TestFullUserWorkflow.test_11_upload_pdf_document _______________
tldw_Server_API/tests/e2e/test_full_user_workflow.py:203: in test_11_upload_pdf_document
    assert "media_id" in response or "id" in response
E   assert ('media_id' in {'results': [{'status': 'Error', 'input_ref': 'tmpqogf1z_d.pdf', 'processing_source': '/var/folders/qc/m53gw5bs70q_xf10fz52dlmw0000gn/T/pdf_process_e62hg0hs/f6df4f43-70a9-4d59-af1c-60bb6f443e11.pdf', 'media_type': 'pdf', 'metadata': {'title': 'E2E Test PDF', 'author': 'Unknown', 'page_count': 0, 'raw': {'error': 'Metadata extraction failed: PDF Error: Corrupted or invalid file data.'}}, 'content': None, 'segments': None, 'chunks': None, 'analysis': None, 'summary': None, 'analysis_details': {'analysis_model': None, 'custom_prompt_used': None, 'system_prompt_used': None, 'summarized_recursively': False}, 'error': 'PDF Extraction Error.', 'warnings': ["Text extraction failed (pymupdf4llm): Failed to open file '/var/folders/qc/m53gw5bs70q_xf10fz52dlmw0000gn/T/pdf_process_e62hg0hs/f6df4f43-70a9-4d59-af1c-60bb6f443e11.pdf'.", 'Metadata extraction failed: PDF Error: Corrupted or invalid file data.', "Text extraction failed (pymupdf4llm): Failed to open file '/var/folders/qc/m53gw5bs70q_xf10fz52dlmw0000gn/T/pdf_process_e62hg0hs/f6df4f43-70a9-4d59-af1c-60bb6f443e11.pdf'.", 'Metadata extraction failed: PDF Error: Corrupted or invalid file data.'], 'db_id': None, 'db_message': 'DB operation skipped (processing failed).', 'message': None, 'parser_used': 'pymupdf4llm', 'keywords': [], 'media_uuid': None, 'transcript': None}]} or 'id' in {'results': [{'status': 'Error', 'input_ref': 'tmpqogf1z_d.pdf', 'processing_source': '/var/folders/qc/m53gw5bs70q_xf10fz52dlmw0000gn/T/pdf_process_e62hg0hs/f6df4f43-70a9-4d59-af1c-60bb6f443e11.pdf', 'media_type': 'pdf', 'metadata': {'title': 'E2E Test PDF', 'author': 'Unknown', 'page_count': 0, 'raw': {'error': 'Metadata extraction failed: PDF Error: Corrupted or invalid file data.'}}, 'content': None, 'segments': None, 'chunks': None, 'analysis': None, 'summary': None, 'analysis_details': {'analysis_model': None, 'custom_prompt_used': None, 'system_prompt_used': None, 'summarized_recursively': False}, 'error': 'PDF Extraction Error.', 'warnings': ["Text extraction failed (pymupdf4llm): Failed to open file '/var/folders/qc/m53gw5bs70q_xf10fz52dlmw0000gn/T/pdf_process_e62hg0hs/f6df4f43-70a9-4d59-af1c-60bb6f443e11.pdf'.", 'Metadata extraction failed: PDF Error: Corrupted or invalid file data.', "Text extraction failed (pymupdf4llm): Failed to open file '/var/folders/qc/m53gw5bs70q_xf10fz52dlmw0000gn/T/pdf_process_e62hg0hs/f6df4f43-70a9-4d59-af1c-60bb6f443e11.pdf'.", 'Metadata extraction failed: PDF Error: Corrupted or invalid file data.'], 'db_id': None, 'db_message': 'DB operation skipped (processing failed).', 'message': None, 'parser_used': 'pymupdf4llm', 'keywords': [], 'media_uuid': None, 'transcript': None}]})
----------------------------- Captured stdout call -----------------------------
Error response: {"results":[{"status":"Error","input_ref":"tmpqogf1z_d.pdf","processing_source":"/var/folders/qc/m53gw5bs70q_xf10fz52dlmw0000gn/T/pdf_process_e62hg0hs/f6df4f43-70a9-4d59-af1c-60bb6f443e11.pdf","media_type":"pdf","metadata":{"title":"E2E Test PDF","author":"Unknown","page_count":0,"raw":{"error":"Metadata extraction failed: PDF Error: Corrupted or invalid file data."}},"content":null,"segments":null,"chunks":null,"analysis":null,"summary":null,"analysis_details":{"analysis_model":null,"custom_prompt_used":null,"system_prompt_used":null,"summarized_recursively":false},"error":"PDF Extraction Error.","warnings":["Text extraction failed (pymupdf4llm): Failed to open file '/var/folders/qc/m53gw5bs70q_xf10fz52dlmw0000gn/T/pdf_process_e62hg0hs/f6df4f43-70a9-4d59-af1c-60bb6f443e11.pdf'.","Metadata extraction failed: PDF Error: Corrupted or invalid file data.","Text extraction failed (pymupdf4llm): Failed to open file '/var/folders/qc/m53gw5bs70q_xf10fz52dlmw0000gn/T/pdf_process_e62hg0hs/f6df4f43-70a9-4d59-af1c-60bb6f443e11.pdf'.","Metadata extraction failed: PDF Error: Corrupted or invalid file data."],"db_id":null,"db_message":"DB operation skipped (processing failed).","message":null,"parser_used":"pymupdf4llm","keywords":[],"media_uuid":null,"transcript":null}]}
________________ TestFullUserWorkflow.test_13_upload_audio_file ________________
tldw_Server_API/tests/e2e/test_full_user_workflow.py:250: in test_13_upload_audio_file
    assert "media_id" in response or "id" in response
E   assert ('media_id' in {'results': [{'status': 'Error', 'input_ref': 'tmpp3u_qk58.wav', 'processing_source': '/var/folders/qc/m53gw5bs70q_xf10fz52dlmw0000gn/T/media_processing_zzyiukia/tmpp3u_qk58.wav', 'media_type': 'audio', 'metadata': {'title': 'E2E Test Audio', 'author': None}, 'content': None, 'transcript': None, 'segments': None, 'chunks': None, 'analysis': None, 'summary': None, 'analysis_details': {}, 'error': "Audio conversion failed: FFmpeg conversion failed (code 234) for 'tmpp3u_qk58.wav'. Error: ffmpeg version 7.1.1 Copyright (c) 2000-2025 the FFmpeg developers\n  built with Apple clang version 17.0.0 (clang-1700.0.13.3)\n  configuration: --prefix=/opt/homebrew/Cellar/ffmpeg/7.1.1_3 --enable-shared --enable-pthreads --enable-version3 --cc=clang --host-cflags= --host-ldflags='-Wl,-ld_classic' --enable-ffplay --enable-gnutls --enable-gpl --enable-libaom --enable-libaribb24 --enable-libbluray --enable-libdav1d --enable-libharfbuzz --enable-libjxl --enable-libmp3lame --enable-libopus --enable-librav1e --enable-librist --enable-librubberband --enable-libsnappy --enable-libsrt --enable-libssh --enable-libsvtav1 --enable-libtesseract --enable-libtheora --enable-libvidstab --enable-libvmaf --enable-libvorbis --enable-libvpx --enable-libwebp --enable-libx264 --enable-libx265 --enable-libxml2 --enable-libxvid --enable-lzma --enable-libfontconfig --enable-libfreetype --enable-frei0r --enable-libass --enable-libopencore-amrnb --enable-libopencore-amrwb --enable-libopenjpeg --enable-libspeex --enable-libsoxr --enable-libzmq --enable-libzimg --disable-libjack --disable-indev=jack --enable-videotoolbox --enable-audiotoolbox --enable-neon\n  libavutil      59. 39.100 / 59. 39.100\n  libavcodec     61. 19.101 / 61. 19.101\n  libavformat    61.  7.100 / 61.  7.100\n  libavdevice    61.  3.100 / 61.  3.100\n  libavfilter    10.  4.100 / 10.  4.100\n  libswscale      8.  3.100 /  8.  3.100\n  libswresample   5.  3.100 /  5.  3.100\n  libpostproc    58.  3.100 / 58.  3.100\n[aist#0:0/pcm_s16le @ 0x13c606b50] Guessed Channel Layout: mono\nInput #0, wav, from '/var/folders/qc/m53gw5bs70q_xf10fz52dlmw0000gn/T/media_processing_zzyiukia/tmpp3u_qk58.wav':\n  Duration: 00:00:00.02, bitrate: 720 kb/s\n  Stream #0:0: Audio: pcm_s16le ([1][0][0][0] / 0x0001), 44100 Hz, mono, s16, 705 kb/s\nOutput /var/folders/qc/m53gw5bs70q_xf10fz52dlmw0000gn/T/media_processing_zzyiukia/tmpp3u_qk58.wav same as Input #0 - exiting\nFFmpeg cannot edit existing files in-place.\nError opening output file /var/folders/qc/m53gw5bs70q_xf10fz52dlmw0000gn/T/media_processing_zzyiukia/tmpp3u_qk58.wav.\nError opening output files: Invalid argument", 'warnings': None, 'db_id': None, 'db_message': None, 'message': None, 'media_uuid': None}]} or 'id' in {'results': [{'status': 'Error', 'input_ref': 'tmpp3u_qk58.wav', 'processing_source': '/var/folders/qc/m53gw5bs70q_xf10fz52dlmw0000gn/T/media_processing_zzyiukia/tmpp3u_qk58.wav', 'media_type': 'audio', 'metadata': {'title': 'E2E Test Audio', 'author': None}, 'content': None, 'transcript': None, 'segments': None, 'chunks': None, 'analysis': None, 'summary': None, 'analysis_details': {}, 'error': "Audio conversion failed: FFmpeg conversion failed (code 234) for 'tmpp3u_qk58.wav'. Error: ffmpeg version 7.1.1 Copyright (c) 2000-2025 the FFmpeg developers\n  built with Apple clang version 17.0.0 (clang-1700.0.13.3)\n  configuration: --prefix=/opt/homebrew/Cellar/ffmpeg/7.1.1_3 --enable-shared --enable-pthreads --enable-version3 --cc=clang --host-cflags= --host-ldflags='-Wl,-ld_classic' --enable-ffplay --enable-gnutls --enable-gpl --enable-libaom --enable-libaribb24 --enable-libbluray --enable-libdav1d --enable-libharfbuzz --enable-libjxl --enable-libmp3lame --enable-libopus --enable-librav1e --enable-librist --enable-librubberband --enable-libsnappy --enable-libsrt --enable-libssh --enable-libsvtav1 --enable-libtesseract --enable-libtheora --enable-libvidstab --enable-libvmaf --enable-libvorbis --enable-libvpx --enable-libwebp --enable-libx264 --enable-libx265 --enable-libxml2 --enable-libxvid --enable-lzma --enable-libfontconfig --enable-libfreetype --enable-frei0r --enable-libass --enable-libopencore-amrnb --enable-libopencore-amrwb --enable-libopenjpeg --enable-libspeex --enable-libsoxr --enable-libzmq --enable-libzimg --disable-libjack --disable-indev=jack --enable-videotoolbox --enable-audiotoolbox --enable-neon\n  libavutil      59. 39.100 / 59. 39.100\n  libavcodec     61. 19.101 / 61. 19.101\n  libavformat    61.  7.100 / 61.  7.100\n  libavdevice    61.  3.100 / 61.  3.100\n  libavfilter    10.  4.100 / 10.  4.100\n  libswscale      8.  3.100 /  8.  3.100\n  libswresample   5.  3.100 /  5.  3.100\n  libpostproc    58.  3.100 / 58.  3.100\n[aist#0:0/pcm_s16le @ 0x13c606b50] Guessed Channel Layout: mono\nInput #0, wav, from '/var/folders/qc/m53gw5bs70q_xf10fz52dlmw0000gn/T/media_processing_zzyiukia/tmpp3u_qk58.wav':\n  Duration: 00:00:00.02, bitrate: 720 kb/s\n  Stream #0:0: Audio: pcm_s16le ([1][0][0][0] / 0x0001), 44100 Hz, mono, s16, 705 kb/s\nOutput /var/folders/qc/m53gw5bs70q_xf10fz52dlmw0000gn/T/media_processing_zzyiukia/tmpp3u_qk58.wav same as Input #0 - exiting\nFFmpeg cannot edit existing files in-place.\nError opening output file /var/folders/qc/m53gw5bs70q_xf10fz52dlmw0000gn/T/media_processing_zzyiukia/tmpp3u_qk58.wav.\nError opening output files: Invalid argument", 'warnings': None, 'db_id': None, 'db_message': None, 'message': None, 'media_uuid': None}]})
----------------------------- Captured stdout call -----------------------------
Error response: {"results":[{"status":"Error","input_ref":"tmpp3u_qk58.wav","processing_source":"/var/folders/qc/m53gw5bs70q_xf10fz52dlmw0000gn/T/media_processing_zzyiukia/tmpp3u_qk58.wav","media_type":"audio","metadata":{"title":"E2E Test Audio","author":null},"content":null,"transcript":null,"segments":null,"chunks":null,"analysis":null,"summary":null,"analysis_details":{},"error":"Audio conversion failed: FFmpeg conversion failed (code 234) for 'tmpp3u_qk58.wav'. Error: ffmpeg version 7.1.1 Copyright (c) 2000-2025 the FFmpeg developers\n  built with Apple clang version 17.0.0 (clang-1700.0.13.3)\n  configuration: --prefix=/opt/homebrew/Cellar/ffmpeg/7.1.1_3 --enable-shared --enable-pthreads --enable-version3 --cc=clang --host-cflags= --host-ldflags='-Wl,-ld_classic' --enable-ffplay --enable-gnutls --enable-gpl --enable-libaom --enable-libaribb24 --enable-libbluray --enable-libdav1d --enable-libharfbuzz --enable-libjxl --enable-libmp3lame --enable-libopus --enable-librav1e --enable-librist --enable-librubberband --enable-libsnappy --enable-libsrt --enable-libssh --enable-libsvtav1 --enable-libtesseract --enable-libtheora --enable-libvidstab --enable-libvmaf --enable-libvorbis --enable-libvpx --enable-libwebp --enable-libx264 --enable-libx265 --enable-libxml2 --enable-libxvid --enable-lzma --enable-libfontconfig --enable-libfreetype --enable-frei0r --enable-libass --enable-libopencore-amrnb --enable-libopencore-amrwb --enable-libopenjpeg --enable-libspeex --enable-libsoxr --enable-libzmq --enable-libzimg --disable-libjack --disable-indev=jack --enable-videotoolbox --enable-audiotoolbox --enable-neon\n  libavutil      59. 39.100 / 59. 39.100\n  libavcodec     61. 19.101 / 61. 19.101\n  libavformat    61.  7.100 / 61.  7.100\n  libavdevice    61.  3.100 / 61.  3.100\n  libavfilter    10.  4.100 / 10.  4.100\n  libswscale      8.  3.100 /  8.  3.100\n  libswresample   5.  3.100 /  5.  3.100\n  libpostproc    58.  3.100 / 58.  3.100\n[aist#0:0/pcm_s16le @ 0x13c606b50] Guessed Channel Layout: mono\nInput #0, wav, from '/var/folders/qc/m53gw5bs70q_xf10fz52dlmw0000gn/T/media_processing_zzyiukia/tmpp3u_qk58.wav':\n  Duration: 00:00:00.02, bitrate: 720 kb/s\n  Stream #0:0: Audio: pcm_s16le ([1][0][0][0] / 0x0001), 44100 Hz, mono, s16, 705 kb/s\nOutput /var/folders/qc/m53gw5bs70q_xf10fz52dlmw0000gn/T/media_processing_zzyiukia/tmpp3u_qk58.wav same as Input #0 - exiting\nFFmpeg cannot edit existing files in-place.\nError opening output file /var/folders/qc/m53gw5bs70q_xf10fz52dlmw0000gn/T/media_processing_zzyiukia/tmpp3u_qk58.wav.\nError opening output files: Invalid argument","warnings":null,"db_id":null,"db_message":null,"message":null,"media_uuid":null}]}
___________________ TestFullUserWorkflow.test_41_list_notes ____________________
tldw_Server_API/tests/e2e/test_full_user_workflow.py:384: in test_41_list_notes
    assert "items" in response or "results" in response or "notes" in response
E   assert ('items' in [{'title': 'Test Note 9po3t', 'content': '\n            # Research Notes\n            \n            ## Key Findings\n            - AI systems are becoming more sophisticated\n            - Natural language processing has made significant advances\n            - Machine learning models require large amounts of data\n            \n            ## Important Concepts\n            1. **Neural Networks**: Computational models inspired by the human brain\n            2. **Deep Learning**: ML using multi-layered neural networks\n            3. **Transformers**: Architecture that revolutionized NLP\n            \n            ## References\n            - Paper 1: "Attention Is All You Need"\n            - Paper 2: "BERT: Pre-training of Deep Bidirectional Transformers"\n            \n            ## Next Steps\n            - Review transformer architecture in detail\n            - Experiment with fine-tuning models\n            - Document findings\n            ', 'id': '04c0b5ca-61c9-4855-ba0f-fa40c6c0bccc', 'created_at': '2025-08-24T00:18:31.347000Z', 'last_modified': '2025-08-24T00:18:31.347000Z', 'version': 1, 'client_id': '1', 'deleted': False}, {'title': 'Test Note yflut', 'content': '\n            # Research Notes\n            \n            ## Key Findings\n            - AI systems are becoming more sophisticated\n            - Natural language processing has made significant advances\n            - Machine learning models require large amounts of data\n            \n            ## Important Concepts\n            1. **Neural Networks**: Computational models inspired by the human brain\n            2. **Deep Learning**: ML using multi-layered neural networks\n            3. **Transformers**: Architecture that revolutionized NLP\n            \n            ## References\n            - Paper 1: "Attention Is All You Need"\n            - Paper 2: "BERT: Pre-training of Deep Bidirectional Transformers"\n            \n            ## Next Steps\n            - Review transformer architecture in detail\n            - Experiment with fine-tuning models\n            - Document findings\n            ', 'id': '10fb839a-dcd1-4839-9b50-d041b908ef1f', 'created_at': '2025-08-23T22:57:05.874000Z', 'last_modified': '2025-08-23T22:57:05.874000Z', 'version': 1, 'client_id': '1', 'deleted': False}, {'title': 'Test Note zil0s', 'content': '\n            # Research Notes\n            \n            ## Key Findings\n            - AI systems are becoming more sophisticated\n            - Natural language processing has made significant advances\n            - Machine learning models require large amounts of data\n            \n            ## Important Concepts\n            1. **Neural Networks**: Computational models inspired by the human brain\n            2. **Deep Learning**: ML using multi-layered neural networks\n            3. **Transformers**: Architecture that revolutionized NLP\n            \n            ## References\n            - Paper 1: "Attention Is All You Need"\n            - Paper 2: "BERT: Pre-training of Deep Bidirectional Transformers"\n            \n            ## Next Steps\n            - Review transformer architecture in detail\n            - Experiment with fine-tuning models\n            - Document findings\n            ', 'id': 'c26a5059-c669-45a8-bcad-02efe441fcfd', 'created_at': '2025-08-23T22:52:28.382000Z', 'last_modified': '2025-08-23T22:52:28.382000Z', 'version': 1, 'client_id': '1', 'deleted': False}] or 'results' in [{'title': 'Test Note 9po3t', 'content': '\n            # Research Notes\n            \n            ## Key Findings\n            - AI systems are becoming more sophisticated\n            - Natural language processing has made significant advances\n            - Machine learning models require large amounts of data\n            \n            ## Important Concepts\n            1. **Neural Networks**: Computational models inspired by the human brain\n            2. **Deep Learning**: ML using multi-layered neural networks\n            3. **Transformers**: Architecture that revolutionized NLP\n            \n            ## References\n            - Paper 1: "Attention Is All You Need"\n            - Paper 2: "BERT: Pre-training of Deep Bidirectional Transformers"\n            \n            ## Next Steps\n            - Review transformer architecture in detail\n            - Experiment with fine-tuning models\n            - Document findings\n            ', 'id': '04c0b5ca-61c9-4855-ba0f-fa40c6c0bccc', 'created_at': '2025-08-24T00:18:31.347000Z', 'last_modified': '2025-08-24T00:18:31.347000Z', 'version': 1, 'client_id': '1', 'deleted': False}, {'title': 'Test Note yflut', 'content': '\n            # Research Notes\n            \n            ## Key Findings\n            - AI systems are becoming more sophisticated\n            - Natural language processing has made significant advances\n            - Machine learning models require large amounts of data\n            \n            ## Important Concepts\n            1. **Neural Networks**: Computational models inspired by the human brain\n            2. **Deep Learning**: ML using multi-layered neural networks\n            3. **Transformers**: Architecture that revolutionized NLP\n            \n            ## References\n            - Paper 1: "Attention Is All You Need"\n            - Paper 2: "BERT: Pre-training of Deep Bidirectional Transformers"\n            \n            ## Next Steps\n            - Review transformer architecture in detail\n            - Experiment with fine-tuning models\n            - Document findings\n            ', 'id': '10fb839a-dcd1-4839-9b50-d041b908ef1f', 'created_at': '2025-08-23T22:57:05.874000Z', 'last_modified': '2025-08-23T22:57:05.874000Z', 'version': 1, 'client_id': '1', 'deleted': False}, {'title': 'Test Note zil0s', 'content': '\n            # Research Notes\n            \n            ## Key Findings\n            - AI systems are becoming more sophisticated\n            - Natural language processing has made significant advances\n            - Machine learning models require large amounts of data\n            \n            ## Important Concepts\n            1. **Neural Networks**: Computational models inspired by the human brain\n            2. **Deep Learning**: ML using multi-layered neural networks\n            3. **Transformers**: Architecture that revolutionized NLP\n            \n            ## References\n            - Paper 1: "Attention Is All You Need"\n            - Paper 2: "BERT: Pre-training of Deep Bidirectional Transformers"\n            \n            ## Next Steps\n            - Review transformer architecture in detail\n            - Experiment with fine-tuning models\n            - Document findings\n            ', 'id': 'c26a5059-c669-45a8-bcad-02efe441fcfd', 'created_at': '2025-08-23T22:52:28.382000Z', 'last_modified': '2025-08-23T22:52:28.382000Z', 'version': 1, 'client_id': '1', 'deleted': False}] or 'notes' in [{'title': 'Test Note 9po3t', 'content': '\n            # Research Notes\n            \n            ## Key Findings\n            - AI systems are becoming more sophisticated\n            - Natural language processing has made significant advances\n            - Machine learning models require large amounts of data\n            \n            ## Important Concepts\n            1. **Neural Networks**: Computational models inspired by the human brain\n            2. **Deep Learning**: ML using multi-layered neural networks\n            3. **Transformers**: Architecture that revolutionized NLP\n            \n            ## References\n            - Paper 1: "Attention Is All You Need"\n            - Paper 2: "BERT: Pre-training of Deep Bidirectional Transformers"\n            \n            ## Next Steps\n            - Review transformer architecture in detail\n            - Experiment with fine-tuning models\n            - Document findings\n            ', 'id': '04c0b5ca-61c9-4855-ba0f-fa40c6c0bccc', 'created_at': '2025-08-24T00:18:31.347000Z', 'last_modified': '2025-08-24T00:18:31.347000Z', 'version': 1, 'client_id': '1', 'deleted': False}, {'title': 'Test Note yflut', 'content': '\n            # Research Notes\n            \n            ## Key Findings\n            - AI systems are becoming more sophisticated\n            - Natural language processing has made significant advances\n            - Machine learning models require large amounts of data\n            \n            ## Important Concepts\n            1. **Neural Networks**: Computational models inspired by the human brain\n            2. **Deep Learning**: ML using multi-layered neural networks\n            3. **Transformers**: Architecture that revolutionized NLP\n            \n            ## References\n            - Paper 1: "Attention Is All You Need"\n            - Paper 2: "BERT: Pre-training of Deep Bidirectional Transformers"\n            \n            ## Next Steps\n            - Review transformer architecture in detail\n            - Experiment with fine-tuning models\n            - Document findings\n            ', 'id': '10fb839a-dcd1-4839-9b50-d041b908ef1f', 'created_at': '2025-08-23T22:57:05.874000Z', 'last_modified': '2025-08-23T22:57:05.874000Z', 'version': 1, 'client_id': '1', 'deleted': False}, {'title': 'Test Note zil0s', 'content': '\n            # Research Notes\n            \n            ## Key Findings\n            - AI systems are becoming more sophisticated\n            - Natural language processing has made significant advances\n            - Machine learning models require large amounts of data\n            \n            ## Important Concepts\n            1. **Neural Networks**: Computational models inspired by the human brain\n            2. **Deep Learning**: ML using multi-layered neural networks\n            3. **Transformers**: Architecture that revolutionized NLP\n            \n            ## References\n            - Paper 1: "Attention Is All You Need"\n            - Paper 2: "BERT: Pre-training of Deep Bidirectional Transformers"\n            \n            ## Next Steps\n            - Review transformer architecture in detail\n            - Experiment with fine-tuning models\n            - Document findings\n            ', 'id': 'c26a5059-c669-45a8-bcad-02efe441fcfd', 'created_at': '2025-08-23T22:52:28.382000Z', 'last_modified': '2025-08-23T22:52:28.382000Z', 'version': 1, 'client_id': '1', 'deleted': False}])
___________________ TestFullUserWorkflow.test_42_update_note ___________________
tldw_Server_API/tests/e2e/test_full_user_workflow.py:400: in test_42_update_note
    response = api_client.update_note(
tldw_Server_API/tests/e2e/fixtures.py:230: in update_note
    response.raise_for_status()
.venv/lib/python3.12/site-packages/httpx/_models.py:829: in raise_for_status
    raise HTTPStatusError(message, request=request, response=self)
E   httpx.HTTPStatusError: Client error '422 Unprocessable Entity' for url 'http://localhost:8000/api/v1/notes/04c0b5ca-61c9-4855-ba0f-fa40c6c0bccc'
E   For more information check: https://developer.mozilla.org/en-US/docs/Web/HTTP/Status/422
__________________ TestFullUserWorkflow.test_43_search_notes ___________________
tldw_Server_API/tests/e2e/test_full_user_workflow.py:417: in test_43_search_notes
    assert "results" in response or "items" in response or "notes" in response
E   assert ('results' in [{'title': 'Test Note zil0s', 'content': '\n            # Research Notes\n            \n            ## Key Findings\n            - AI systems are becoming more sophisticated\n            - Natural language processing has made significant advances\n            - Machine learning models require large amounts of data\n            \n            ## Important Concepts\n            1. **Neural Networks**: Computational models inspired by the human brain\n            2. **Deep Learning**: ML using multi-layered neural networks\n            3. **Transformers**: Architecture that revolutionized NLP\n            \n            ## References\n            - Paper 1: "Attention Is All You Need"\n            - Paper 2: "BERT: Pre-training of Deep Bidirectional Transformers"\n            \n            ## Next Steps\n            - Review transformer architecture in detail\n            - Experiment with fine-tuning models\n            - Document findings\n            ', 'id': 'c26a5059-c669-45a8-bcad-02efe441fcfd', 'created_at': '2025-08-23T22:52:28.382000Z', 'last_modified': '2025-08-23T22:52:28.382000Z', 'version': 1, 'client_id': '1', 'deleted': False}, {'title': 'Test Note yflut', 'content': '\n            # Research Notes\n            \n            ## Key Findings\n            - AI systems are becoming more sophisticated\n            - Natural language processing has made significant advances\n            - Machine learning models require large amounts of data\n            \n            ## Important Concepts\n            1. **Neural Networks**: Computational models inspired by the human brain\n            2. **Deep Learning**: ML using multi-layered neural networks\n            3. **Transformers**: Architecture that revolutionized NLP\n            \n            ## References\n            - Paper 1: "Attention Is All You Need"\n            - Paper 2: "BERT: Pre-training of Deep Bidirectional Transformers"\n            \n            ## Next Steps\n            - Review transformer architecture in detail\n            - Experiment with fine-tuning models\n            - Document findings\n            ', 'id': '10fb839a-dcd1-4839-9b50-d041b908ef1f', 'created_at': '2025-08-23T22:57:05.874000Z', 'last_modified': '2025-08-23T22:57:05.874000Z', 'version': 1, 'client_id': '1', 'deleted': False}, {'title': 'Test Note 9po3t', 'content': '\n            # Research Notes\n            \n            ## Key Findings\n            - AI systems are becoming more sophisticated\n            - Natural language processing has made significant advances\n            - Machine learning models require large amounts of data\n            \n            ## Important Concepts\n            1. **Neural Networks**: Computational models inspired by the human brain\n            2. **Deep Learning**: ML using multi-layered neural networks\n            3. **Transformers**: Architecture that revolutionized NLP\n            \n            ## References\n            - Paper 1: "Attention Is All You Need"\n            - Paper 2: "BERT: Pre-training of Deep Bidirectional Transformers"\n            \n            ## Next Steps\n            - Review transformer architecture in detail\n            - Experiment with fine-tuning models\n            - Document findings\n            ', 'id': '04c0b5ca-61c9-4855-ba0f-fa40c6c0bccc', 'created_at': '2025-08-24T00:18:31.347000Z', 'last_modified': '2025-08-24T00:18:31.347000Z', 'version': 1, 'client_id': '1', 'deleted': False}] or 'items' in [{'title': 'Test Note zil0s', 'content': '\n            # Research Notes\n            \n            ## Key Findings\n            - AI systems are becoming more sophisticated\n            - Natural language processing has made significant advances\n            - Machine learning models require large amounts of data\n            \n            ## Important Concepts\n            1. **Neural Networks**: Computational models inspired by the human brain\n            2. **Deep Learning**: ML using multi-layered neural networks\n            3. **Transformers**: Architecture that revolutionized NLP\n            \n            ## References\n            - Paper 1: "Attention Is All You Need"\n            - Paper 2: "BERT: Pre-training of Deep Bidirectional Transformers"\n            \n            ## Next Steps\n            - Review transformer architecture in detail\n            - Experiment with fine-tuning models\n            - Document findings\n            ', 'id': 'c26a5059-c669-45a8-bcad-02efe441fcfd', 'created_at': '2025-08-23T22:52:28.382000Z', 'last_modified': '2025-08-23T22:52:28.382000Z', 'version': 1, 'client_id': '1', 'deleted': False}, {'title': 'Test Note yflut', 'content': '\n            # Research Notes\n            \n            ## Key Findings\n            - AI systems are becoming more sophisticated\n            - Natural language processing has made significant advances\n            - Machine learning models require large amounts of data\n            \n            ## Important Concepts\n            1. **Neural Networks**: Computational models inspired by the human brain\n            2. **Deep Learning**: ML using multi-layered neural networks\n            3. **Transformers**: Architecture that revolutionized NLP\n            \n            ## References\n            - Paper 1: "Attention Is All You Need"\n            - Paper 2: "BERT: Pre-training of Deep Bidirectional Transformers"\n            \n            ## Next Steps\n            - Review transformer architecture in detail\n            - Experiment with fine-tuning models\n            - Document findings\n            ', 'id': '10fb839a-dcd1-4839-9b50-d041b908ef1f', 'created_at': '2025-08-23T22:57:05.874000Z', 'last_modified': '2025-08-23T22:57:05.874000Z', 'version': 1, 'client_id': '1', 'deleted': False}, {'title': 'Test Note 9po3t', 'content': '\n            # Research Notes\n            \n            ## Key Findings\n            - AI systems are becoming more sophisticated\n            - Natural language processing has made significant advances\n            - Machine learning models require large amounts of data\n            \n            ## Important Concepts\n            1. **Neural Networks**: Computational models inspired by the human brain\n            2. **Deep Learning**: ML using multi-layered neural networks\n            3. **Transformers**: Architecture that revolutionized NLP\n            \n            ## References\n            - Paper 1: "Attention Is All You Need"\n            - Paper 2: "BERT: Pre-training of Deep Bidirectional Transformers"\n            \n            ## Next Steps\n            - Review transformer architecture in detail\n            - Experiment with fine-tuning models\n            - Document findings\n            ', 'id': '04c0b5ca-61c9-4855-ba0f-fa40c6c0bccc', 'created_at': '2025-08-24T00:18:31.347000Z', 'last_modified': '2025-08-24T00:18:31.347000Z', 'version': 1, 'client_id': '1', 'deleted': False}] or 'notes' in [{'title': 'Test Note zil0s', 'content': '\n            # Research Notes\n            \n            ## Key Findings\n            - AI systems are becoming more sophisticated\n            - Natural language processing has made significant advances\n            - Machine learning models require large amounts of data\n            \n            ## Important Concepts\n            1. **Neural Networks**: Computational models inspired by the human brain\n            2. **Deep Learning**: ML using multi-layered neural networks\n            3. **Transformers**: Architecture that revolutionized NLP\n            \n            ## References\n            - Paper 1: "Attention Is All You Need"\n            - Paper 2: "BERT: Pre-training of Deep Bidirectional Transformers"\n            \n            ## Next Steps\n            - Review transformer architecture in detail\n            - Experiment with fine-tuning models\n            - Document findings\n            ', 'id': 'c26a5059-c669-45a8-bcad-02efe441fcfd', 'created_at': '2025-08-23T22:52:28.382000Z', 'last_modified': '2025-08-23T22:52:28.382000Z', 'version': 1, 'client_id': '1', 'deleted': False}, {'title': 'Test Note yflut', 'content': '\n            # Research Notes\n            \n            ## Key Findings\n            - AI systems are becoming more sophisticated\n            - Natural language processing has made significant advances\n            - Machine learning models require large amounts of data\n            \n            ## Important Concepts\n            1. **Neural Networks**: Computational models inspired by the human brain\n            2. **Deep Learning**: ML using multi-layered neural networks\n            3. **Transformers**: Architecture that revolutionized NLP\n            \n            ## References\n            - Paper 1: "Attention Is All You Need"\n            - Paper 2: "BERT: Pre-training of Deep Bidirectional Transformers"\n            \n            ## Next Steps\n            - Review transformer architecture in detail\n            - Experiment with fine-tuning models\n            - Document findings\n            ', 'id': '10fb839a-dcd1-4839-9b50-d041b908ef1f', 'created_at': '2025-08-23T22:57:05.874000Z', 'last_modified': '2025-08-23T22:57:05.874000Z', 'version': 1, 'client_id': '1', 'deleted': False}, {'title': 'Test Note 9po3t', 'content': '\n            # Research Notes\n            \n            ## Key Findings\n            - AI systems are becoming more sophisticated\n            - Natural language processing has made significant advances\n            - Machine learning models require large amounts of data\n            \n            ## Important Concepts\n            1. **Neural Networks**: Computational models inspired by the human brain\n            2. **Deep Learning**: ML using multi-layered neural networks\n            3. **Transformers**: Architecture that revolutionized NLP\n            \n            ## References\n            - Paper 1: "Attention Is All You Need"\n            - Paper 2: "BERT: Pre-training of Deep Bidirectional Transformers"\n            \n            ## Next Steps\n            - Review transformer architecture in detail\n            - Experiment with fine-tuning models\n            - Document findings\n            ', 'id': '04c0b5ca-61c9-4855-ba0f-fa40c6c0bccc', 'created_at': '2025-08-24T00:18:31.347000Z', 'last_modified': '2025-08-24T00:18:31.347000Z', 'version': 1, 'client_id': '1', 'deleted': False}])
__________________ TestFullUserWorkflow.test_50_create_prompt __________________
tldw_Server_API/tests/e2e/test_full_user_workflow.py:427: in test_50_create_prompt
    response = api_client.create_prompt(
tldw_Server_API/tests/e2e/fixtures.py:259: in create_prompt
    response.raise_for_status()
.venv/lib/python3.12/site-packages/httpx/_models.py:829: in raise_for_status
    raise HTTPStatusError(message, request=request, response=self)
E   httpx.HTTPStatusError: Client error '401 Unauthorized' for url 'http://localhost:8000/api/v1/prompts/'
E   For more information check: https://developer.mozilla.org/en-US/docs/Web/HTTP/Status/401
__________________ TestFullUserWorkflow.test_51_list_prompts ___________________
tldw_Server_API/tests/e2e/test_full_user_workflow.py:443: in test_51_list_prompts
    response = api_client.get_prompts()
               ^^^^^^^^^^^^^^^^^^^^^^^^
tldw_Server_API/tests/e2e/fixtures.py:265: in get_prompts
    response.raise_for_status()
.venv/lib/python3.12/site-packages/httpx/_models.py:829: in raise_for_status
    raise HTTPStatusError(message, request=request, response=self)
E   httpx.HTTPStatusError: Client error '401 Unauthorized' for url 'http://localhost:8000/api/v1/prompts/'
E   For more information check: https://developer.mozilla.org/en-US/docs/Web/HTTP/Status/401
=========================== short test summary info ============================
FAILED tldw_Server_API/tests/e2e/test_full_user_workflow.py::TestFullUserWorkflow::test_10_upload_text_document - assert ('media_id' in {'results': [{'status': 'Success', 'input_ref': 'tmp3uvyfb_m.txt', 'processing_source': '/var/folders/qc/m53gw5bs70q_xf10fz52dlmw0000gn/T/media_processing_8stn3lvh/tmp3uvyfb_m.txt', 'media_type': 'document', 'metadata': {'title': 'E2E Test Document', 'author': 'Unknown', 'source_filename': 'tmp3uvyfb_m.txt', 'raw': {'extracted_title': None, 'extracted_author': 'Unknown'}}, 'content': '# Sample Document for E2E Testing\n\n This is a test document created for end-to-end testing of the tldw_server API.\n\n ## Introduction\n The purpose of this document is to provide realistic content for testing various\n features including transcription, analysis, and search functionality.\n\n ## Key Topics\n - Natural Language Processing\n - Machine Learning Applications\n - Document Analysis\n - Information Retrieval\n\n ## Technical Details\n This system uses advanced AI techniques to process and understand content.\n The main components include:\n 1. Text extraction and parsing\n 2. Semantic analysis\n 3. Entity recognition\n 4. Summarization\n\n ## Conclusion\n This test content should be sufficient for validating the core functionality\n of the system during end-to-end testing.\n\n Keywords: testing, documentation, AI, NLP, machine learning', 'segments': None, 'chunks': [{'text': '# Sample Document for E2E Testing\n\n This is a test document created for end-to-end testing of the tldw_server API. ## Introduction\n The purpose of this document is to provide realistic content for testing various\n features including transcription, analysis, and search functionality. ## Key Topics\n - Natural Language Processing\n - Machine Learning Applications\n - Document Analysis\n - Information Retrieval\n\n ## Technical Details\n This system uses advanced AI techniques to process and understand content. The main components include:\n 1. Text extraction and parsing\n 2. Semantic analysis\n 3. Entity recognition\n 4. Summarization\n\n ## Conclusion\n This test content should be sufficient for validating the core functionality\n of the system during end-to-end testing. Keywords: testing, documentation, AI, NLP, machine learning', 'metadata': {'index': 0, 'start_index': 0, 'end_index': 826, 'word_count': 115, 'language': 'en'}}], 'analysis': None, 'summary': None, 'analysis_details': {'analysis_model': None, 'custom_prompt_used': None, 'system_prompt_used': None, 'summarized_recursively': False, 'parser_used': 'txt'}, 'error': None, 'warnings': None, 'db_id': None, 'db_message': "Media 'E2E Test Document' already exists. Overwrite not enabled.", 'message': None, 'source_format': 'txt', 'keywords': [], 'media_uuid': None, 'transcript': '# Sample Document for E2E Testing\n\n This is a test document created for end-to-end testing of the tldw_server API.\n\n ## Introduction\n The purpose of this document is to provide realistic content for testing various\n features including transcription, analysis, and search functionality.\n\n ## Key Topics\n - Natural Language Processing\n - Machine Learning Applications\n - Document Analysis\n - Information Retrieval\n\n ## Technical Details\n This system uses advanced AI techniques to process and understand content.\n The main components include:\n 1. Text extraction and parsing\n 2. Semantic analysis\n 3. Entity recognition\n 4. Summarization\n\n ## Conclusion\n This test content should be sufficient for validating the core functionality\n of the system during end-to-end testing.\n\n Keywords: testing, documentation, AI, NLP, machine learning'}]} or 'id' in {'results': [{'status': 'Success', 'input_ref': 'tmp3uvyfb_m.txt', 'processing_source': '/var/folders/qc/m53gw5bs70q_xf10fz52dlmw0000gn/T/media_processing_8stn3lvh/tmp3uvyfb_m.txt', 'media_type': 'document', 'metadata': {'title': 'E2E Test Document', 'author': 'Unknown', 'source_filename': 'tmp3uvyfb_m.txt', 'raw': {'extracted_title': None, 'extracted_author': 'Unknown'}}, 'content': '# Sample Document for E2E Testing\n\n This is a test document created for end-to-end testing of the tldw_server API.\n\n ## Introduction\n The purpose of this document is to provide realistic content for testing various\n features including transcription, analysis, and search functionality.\n\n ## Key Topics\n - Natural Language Processing\n - Machine Learning Applications\n - Document Analysis\n - Information Retrieval\n\n ## Technical Details\n This system uses advanced AI techniques to process and understand content.\n The main components include:\n 1. Text extraction and parsing\n 2. Semantic analysis\n 3. Entity recognition\n 4. Summarization\n\n ## Conclusion\n This test content should be sufficient for validating the core functionality\n of the system during end-to-end testing.\n\n Keywords: testing, documentation, AI, NLP, machine learning', 'segments': None, 'chunks': [{'text': '# Sample Document for E2E Testing\n\n This is a test document created for end-to-end testing of the tldw_server API. ## Introduction\n The purpose of this document is to provide realistic content for testing various\n features including transcription, analysis, and search functionality. ## Key Topics\n - Natural Language Processing\n - Machine Learning Applications\n - Document Analysis\n - Information Retrieval\n\n ## Technical Details\n This system uses advanced AI techniques to process and understand content. The main components include:\n 1. Text extraction and parsing\n 2. Semantic analysis\n 3. Entity recognition\n 4. Summarization\n\n ## Conclusion\n This test content should be sufficient for validating the core functionality\n of the system during end-to-end testing. Keywords: testing, documentation, AI, NLP, machine learning', 'metadata': {'index': 0, 'start_index': 0, 'end_index': 826, 'word_count': 115, 'language': 'en'}}], 'analysis': None, 'summary': None, 'analysis_details': {'analysis_model': None, 'custom_prompt_used': None, 'system_prompt_used': None, 'summarized_recursively': False, 'parser_used': 'txt'}, 'error': None, 'warnings': None, 'db_id': None, 'db_message': "Media 'E2E Test Document' already exists. Overwrite not enabled.", 'message': None, 'source_format': 'txt', 'keywords': [], 'media_uuid': None, 'transcript': '# Sample Document for E2E Testing\n\n This is a test document created for end-to-end testing of the tldw_server API.\n\n ## Introduction\n The purpose of this document is to provide realistic content for testing various\n features including transcription, analysis, and search functionality.\n\n ## Key Topics\n - Natural Language Processing\n - Machine Learning Applications\n - Document Analysis\n - Information Retrieval\n\n ## Technical Details\n This system uses advanced AI techniques to process and understand content.\n The main components include:\n 1. Text extraction and parsing\n 2. Semantic analysis\n 3. Entity recognition\n 4. Summarization\n\n ## Conclusion\n This test content should be sufficient for validating the core functionality\n of the system during end-to-end testing.\n\n Keywords: testing, documentation, AI, NLP, machine learning'}]})
FAILED tldw_Server_API/tests/e2e/test_full_user_workflow.py::TestFullUserWorkflow::test_11_upload_pdf_document - assert ('media_id' in {'results': [{'status': 'Error', 'input_ref': 'tmpqogf1z_d.pdf', 'processing_source': '/var/folders/qc/m53gw5bs70q_xf10fz52dlmw0000gn/T/pdf_process_e62hg0hs/f6df4f43-70a9-4d59-af1c-60bb6f443e11.pdf', 'media_type': 'pdf', 'metadata': {'title': 'E2E Test PDF', 'author': 'Unknown', 'page_count': 0, 'raw': {'error': 'Metadata extraction failed: PDF Error: Corrupted or invalid file data.'}}, 'content': None, 'segments': None, 'chunks': None, 'analysis': None, 'summary': None, 'analysis_details': {'analysis_model': None, 'custom_prompt_used': None, 'system_prompt_used': None, 'summarized_recursively': False}, 'error': 'PDF Extraction Error.', 'warnings': ["Text extraction failed (pymupdf4llm): Failed to open file '/var/folders/qc/m53gw5bs70q_xf10fz52dlmw0000gn/T/pdf_process_e62hg0hs/f6df4f43-70a9-4d59-af1c-60bb6f443e11.pdf'.", 'Metadata extraction failed: PDF Error: Corrupted or invalid file data.', "Text extraction failed (pymupdf4llm): Failed to open file '/var/folders/qc/m53gw5bs70q_xf10fz52dlmw0000gn/T/pdf_process_e62hg0hs/f6df4f43-70a9-4d59-af1c-60bb6f443e11.pdf'.", 'Metadata extraction failed: PDF Error: Corrupted or invalid file data.'], 'db_id': None, 'db_message': 'DB operation skipped (processing failed).', 'message': None, 'parser_used': 'pymupdf4llm', 'keywords': [], 'media_uuid': None, 'transcript': None}]} or 'id' in {'results': [{'status': 'Error', 'input_ref': 'tmpqogf1z_d.pdf', 'processing_source': '/var/folders/qc/m53gw5bs70q_xf10fz52dlmw0000gn/T/pdf_process_e62hg0hs/f6df4f43-70a9-4d59-af1c-60bb6f443e11.pdf', 'media_type': 'pdf', 'metadata': {'title': 'E2E Test PDF', 'author': 'Unknown', 'page_count': 0, 'raw': {'error': 'Metadata extraction failed: PDF Error: Corrupted or invalid file data.'}}, 'content': None, 'segments': None, 'chunks': None, 'analysis': None, 'summary': None, 'analysis_details': {'analysis_model': None, 'custom_prompt_used': None, 'system_prompt_used': None, 'summarized_recursively': False}, 'error': 'PDF Extraction Error.', 'warnings': ["Text extraction failed (pymupdf4llm): Failed to open file '/var/folders/qc/m53gw5bs70q_xf10fz52dlmw0000gn/T/pdf_process_e62hg0hs/f6df4f43-70a9-4d59-af1c-60bb6f443e11.pdf'.", 'Metadata extraction failed: PDF Error: Corrupted or invalid file data.', "Text extraction failed (pymupdf4llm): Failed to open file '/var/folders/qc/m53gw5bs70q_xf10fz52dlmw0000gn/T/pdf_process_e62hg0hs/f6df4f43-70a9-4d59-af1c-60bb6f443e11.pdf'.", 'Metadata extraction failed: PDF Error: Corrupted or invalid file data.'], 'db_id': None, 'db_message': 'DB operation skipped (processing failed).', 'message': None, 'parser_used': 'pymupdf4llm', 'keywords': [], 'media_uuid': None, 'transcript': None}]})
FAILED tldw_Server_API/tests/e2e/test_full_user_workflow.py::TestFullUserWorkflow::test_13_upload_audio_file - assert ('media_id' in {'results': [{'status': 'Error', 'input_ref': 'tmpp3u_qk58.wav', 'processing_source': '/var/folders/qc/m53gw5bs70q_xf10fz52dlmw0000gn/T/media_processing_zzyiukia/tmpp3u_qk58.wav', 'media_type': 'audio', 'metadata': {'title': 'E2E Test Audio', 'author': None}, 'content': None, 'transcript': None, 'segments': None, 'chunks': None, 'analysis': None, 'summary': None, 'analysis_details': {}, 'error': "Audio conversion failed: FFmpeg conversion failed (code 234) for 'tmpp3u_qk58.wav'. Error: ffmpeg version 7.1.1 Copyright (c) 2000-2025 the FFmpeg developers\n  built with Apple clang version 17.0.0 (clang-1700.0.13.3)\n  configuration: --prefix=/opt/homebrew/Cellar/ffmpeg/7.1.1_3 --enable-shared --enable-pthreads --enable-version3 --cc=clang --host-cflags= --host-ldflags='-Wl,-ld_classic' --enable-ffplay --enable-gnutls --enable-gpl --enable-libaom --enable-libaribb24 --enable-libbluray --enable-libdav1d --enable-libharfbuzz --enable-libjxl --enable-libmp3lame --enable-libopus --enable-librav1e --enable-librist --enable-librubberband --enable-libsnappy --enable-libsrt --enable-libssh --enable-libsvtav1 --enable-libtesseract --enable-libtheora --enable-libvidstab --enable-libvmaf --enable-libvorbis --enable-libvpx --enable-libwebp --enable-libx264 --enable-libx265 --enable-libxml2 --enable-libxvid --enable-lzma --enable-libfontconfig --enable-libfreetype --enable-frei0r --enable-libass --enable-libopencore-amrnb --enable-libopencore-amrwb --enable-libopenjpeg --enable-libspeex --enable-libsoxr --enable-libzmq --enable-libzimg --disable-libjack --disable-indev=jack --enable-videotoolbox --enable-audiotoolbox --enable-neon\n  libavutil      59. 39.100 / 59. 39.100\n  libavcodec     61. 19.101 / 61. 19.101\n  libavformat    61.  7.100 / 61.  7.100\n  libavdevice    61.  3.100 / 61.  3.100\n  libavfilter    10.  4.100 / 10.  4.100\n  libswscale      8.  3.100 /  8.  3.100\n  libswresample   5.  3.100 /  5.  3.100\n  libpostproc    58.  3.100 / 58.  3.100\n[aist#0:0/pcm_s16le @ 0x13c606b50] Guessed Channel Layout: mono\nInput #0, wav, from '/var/folders/qc/m53gw5bs70q_xf10fz52dlmw0000gn/T/media_processing_zzyiukia/tmpp3u_qk58.wav':\n  Duration: 00:00:00.02, bitrate: 720 kb/s\n  Stream #0:0: Audio: pcm_s16le ([1][0][0][0] / 0x0001), 44100 Hz, mono, s16, 705 kb/s\nOutput /var/folders/qc/m53gw5bs70q_xf10fz52dlmw0000gn/T/media_processing_zzyiukia/tmpp3u_qk58.wav same as Input #0 - exiting\nFFmpeg cannot edit existing files in-place.\nError opening output file /var/folders/qc/m53gw5bs70q_xf10fz52dlmw0000gn/T/media_processing_zzyiukia/tmpp3u_qk58.wav.\nError opening output files: Invalid argument", 'warnings': None, 'db_id': None, 'db_message': None, 'message': None, 'media_uuid': None}]} or 'id' in {'results': [{'status': 'Error', 'input_ref': 'tmpp3u_qk58.wav', 'processing_source': '/var/folders/qc/m53gw5bs70q_xf10fz52dlmw0000gn/T/media_processing_zzyiukia/tmpp3u_qk58.wav', 'media_type': 'audio', 'metadata': {'title': 'E2E Test Audio', 'author': None}, 'content': None, 'transcript': None, 'segments': None, 'chunks': None, 'analysis': None, 'summary': None, 'analysis_details': {}, 'error': "Audio conversion failed: FFmpeg conversion failed (code 234) for 'tmpp3u_qk58.wav'. Error: ffmpeg version 7.1.1 Copyright (c) 2000-2025 the FFmpeg developers\n  built with Apple clang version 17.0.0 (clang-1700.0.13.3)\n  configuration: --prefix=/opt/homebrew/Cellar/ffmpeg/7.1.1_3 --enable-shared --enable-pthreads --enable-version3 --cc=clang --host-cflags= --host-ldflags='-Wl,-ld_classic' --enable-ffplay --enable-gnutls --enable-gpl --enable-libaom --enable-libaribb24 --enable-libbluray --enable-libdav1d --enable-libharfbuzz --enable-libjxl --enable-libmp3lame --enable-libopus --enable-librav1e --enable-librist --enable-librubberband --enable-libsnappy --enable-libsrt --enable-libssh --enable-libsvtav1 --enable-libtesseract --enable-libtheora --enable-libvidstab --enable-libvmaf --enable-libvorbis --enable-libvpx --enable-libwebp --enable-libx264 --enable-libx265 --enable-libxml2 --enable-libxvid --enable-lzma --enable-libfontconfig --enable-libfreetype --enable-frei0r --enable-libass --enable-libopencore-amrnb --enable-libopencore-amrwb --enable-libopenjpeg --enable-libspeex --enable-libsoxr --enable-libzmq --enable-libzimg --disable-libjack --disable-indev=jack --enable-videotoolbox --enable-audiotoolbox --enable-neon\n  libavutil      59. 39.100 / 59. 39.100\n  libavcodec     61. 19.101 / 61. 19.101\n  libavformat    61.  7.100 / 61.  7.100\n  libavdevice    61.  3.100 / 61.  3.100\n  libavfilter    10.  4.100 / 10.  4.100\n  libswscale      8.  3.100 /  8.  3.100\n  libswresample   5.  3.100 /  5.  3.100\n  libpostproc    58.  3.100 / 58.  3.100\n[aist#0:0/pcm_s16le @ 0x13c606b50] Guessed Channel Layout: mono\nInput #0, wav, from '/var/folders/qc/m53gw5bs70q_xf10fz52dlmw0000gn/T/media_processing_zzyiukia/tmpp3u_qk58.wav':\n  Duration: 00:00:00.02, bitrate: 720 kb/s\n  Stream #0:0: Audio: pcm_s16le ([1][0][0][0] / 0x0001), 44100 Hz, mono, s16, 705 kb/s\nOutput /var/folders/qc/m53gw5bs70q_xf10fz52dlmw0000gn/T/media_processing_zzyiukia/tmpp3u_qk58.wav same as Input #0 - exiting\nFFmpeg cannot edit existing files in-place.\nError opening output file /var/folders/qc/m53gw5bs70q_xf10fz52dlmw0000gn/T/media_processing_zzyiukia/tmpp3u_qk58.wav.\nError opening output files: Invalid argument", 'warnings': None, 'db_id': None, 'db_message': None, 'message': None, 'media_uuid': None}]})
FAILED tldw_Server_API/tests/e2e/test_full_user_workflow.py::TestFullUserWorkflow::test_41_list_notes - assert ('items' in [{'title': 'Test Note 9po3t', 'content': '\n            # Research Notes\n            \n            ## Key Findings\n            - AI systems are becoming more sophisticated\n            - Natural language processing has made significant advances\n            - Machine learning models require large amounts of data\n            \n            ## Important Concepts\n            1. **Neural Networks**: Computational models inspired by the human brain\n            2. **Deep Learning**: ML using multi-layered neural networks\n            3. **Transformers**: Architecture that revolutionized NLP\n            \n            ## References\n            - Paper 1: "Attention Is All You Need"\n            - Paper 2: "BERT: Pre-training of Deep Bidirectional Transformers"\n            \n            ## Next Steps\n            - Review transformer architecture in detail\n            - Experiment with fine-tuning models\n            - Document findings\n            ', 'id': '04c0b5ca-61c9-4855-ba0f-fa40c6c0bccc', 'created_at': '2025-08-24T00:18:31.347000Z', 'last_modified': '2025-08-24T00:18:31.347000Z', 'version': 1, 'client_id': '1', 'deleted': False}, {'title': 'Test Note yflut', 'content': '\n            # Research Notes\n            \n            ## Key Findings\n            - AI systems are becoming more sophisticated\n            - Natural language processing has made significant advances\n            - Machine learning models require large amounts of data\n            \n            ## Important Concepts\n            1. **Neural Networks**: Computational models inspired by the human brain\n            2. **Deep Learning**: ML using multi-layered neural networks\n            3. **Transformers**: Architecture that revolutionized NLP\n            \n            ## References\n            - Paper 1: "Attention Is All You Need"\n            - Paper 2: "BERT: Pre-training of Deep Bidirectional Transformers"\n            \n            ## Next Steps\n            - Review transformer architecture in detail\n            - Experiment with fine-tuning models\n            - Document findings\n            ', 'id': '10fb839a-dcd1-4839-9b50-d041b908ef1f', 'created_at': '2025-08-23T22:57:05.874000Z', 'last_modified': '2025-08-23T22:57:05.874000Z', 'version': 1, 'client_id': '1', 'deleted': False}, {'title': 'Test Note zil0s', 'content': '\n            # Research Notes\n            \n            ## Key Findings\n            - AI systems are becoming more sophisticated\n            - Natural language processing has made significant advances\n            - Machine learning models require large amounts of data\n            \n            ## Important Concepts\n            1. **Neural Networks**: Computational models inspired by the human brain\n            2. **Deep Learning**: ML using multi-layered neural networks\n            3. **Transformers**: Architecture that revolutionized NLP\n            \n            ## References\n            - Paper 1: "Attention Is All You Need"\n            - Paper 2: "BERT: Pre-training of Deep Bidirectional Transformers"\n            \n            ## Next Steps\n            - Review transformer architecture in detail\n            - Experiment with fine-tuning models\n            - Document findings\n            ', 'id': 'c26a5059-c669-45a8-bcad-02efe441fcfd', 'created_at': '2025-08-23T22:52:28.382000Z', 'last_modified': '2025-08-23T22:52:28.382000Z', 'version': 1, 'client_id': '1', 'deleted': False}] or 'results' in [{'title': 'Test Note 9po3t', 'content': '\n            # Research Notes\n            \n            ## Key Findings\n            - AI systems are becoming more sophisticated\n            - Natural language processing has made significant advances\n            - Machine learning models require large amounts of data\n            \n            ## Important Concepts\n            1. **Neural Networks**: Computational models inspired by the human brain\n            2. **Deep Learning**: ML using multi-layered neural networks\n            3. **Transformers**: Architecture that revolutionized NLP\n            \n            ## References\n            - Paper 1: "Attention Is All You Need"\n            - Paper 2: "BERT: Pre-training of Deep Bidirectional Transformers"\n            \n            ## Next Steps\n            - Review transformer architecture in detail\n            - Experiment with fine-tuning models\n            - Document findings\n            ', 'id': '04c0b5ca-61c9-4855-ba0f-fa40c6c0bccc', 'created_at': '2025-08-24T00:18:31.347000Z', 'last_modified': '2025-08-24T00:18:31.347000Z', 'version': 1, 'client_id': '1', 'deleted': False}, {'title': 'Test Note yflut', 'content': '\n            # Research Notes\n            \n            ## Key Findings\n            - AI systems are becoming more sophisticated\n            - Natural language processing has made significant advances\n            - Machine learning models require large amounts of data\n            \n            ## Important Concepts\n            1. **Neural Networks**: Computational models inspired by the human brain\n            2. **Deep Learning**: ML using multi-layered neural networks\n            3. **Transformers**: Architecture that revolutionized NLP\n            \n            ## References\n            - Paper 1: "Attention Is All You Need"\n            - Paper 2: "BERT: Pre-training of Deep Bidirectional Transformers"\n            \n            ## Next Steps\n            - Review transformer architecture in detail\n            - Experiment with fine-tuning models\n            - Document findings\n            ', 'id': '10fb839a-dcd1-4839-9b50-d041b908ef1f', 'created_at': '2025-08-23T22:57:05.874000Z', 'last_modified': '2025-08-23T22:57:05.874000Z', 'version': 1, 'client_id': '1', 'deleted': False}, {'title': 'Test Note zil0s', 'content': '\n            # Research Notes\n            \n            ## Key Findings\n            - AI systems are becoming more sophisticated\n            - Natural language processing has made significant advances\n            - Machine learning models require large amounts of data\n            \n            ## Important Concepts\n            1. **Neural Networks**: Computational models inspired by the human brain\n            2. **Deep Learning**: ML using multi-layered neural networks\n            3. **Transformers**: Architecture that revolutionized NLP\n            \n            ## References\n            - Paper 1: "Attention Is All You Need"\n            - Paper 2: "BERT: Pre-training of Deep Bidirectional Transformers"\n            \n            ## Next Steps\n            - Review transformer architecture in detail\n            - Experiment with fine-tuning models\n            - Document findings\n            ', 'id': 'c26a5059-c669-45a8-bcad-02efe441fcfd', 'created_at': '2025-08-23T22:52:28.382000Z', 'last_modified': '2025-08-23T22:52:28.382000Z', 'version': 1, 'client_id': '1', 'deleted': False}] or 'notes' in [{'title': 'Test Note 9po3t', 'content': '\n            # Research Notes\n            \n            ## Key Findings\n            - AI systems are becoming more sophisticated\n            - Natural language processing has made significant advances\n            - Machine learning models require large amounts of data\n            \n            ## Important Concepts\n            1. **Neural Networks**: Computational models inspired by the human brain\n            2. **Deep Learning**: ML using multi-layered neural networks\n            3. **Transformers**: Architecture that revolutionized NLP\n            \n            ## References\n            - Paper 1: "Attention Is All You Need"\n            - Paper 2: "BERT: Pre-training of Deep Bidirectional Transformers"\n            \n            ## Next Steps\n            - Review transformer architecture in detail\n            - Experiment with fine-tuning models\n            - Document findings\n            ', 'id': '04c0b5ca-61c9-4855-ba0f-fa40c6c0bccc', 'created_at': '2025-08-24T00:18:31.347000Z', 'last_modified': '2025-08-24T00:18:31.347000Z', 'version': 1, 'client_id': '1', 'deleted': False}, {'title': 'Test Note yflut', 'content': '\n            # Research Notes\n            \n            ## Key Findings\n            - AI systems are becoming more sophisticated\n            - Natural language processing has made significant advances\n            - Machine learning models require large amounts of data\n            \n            ## Important Concepts\n            1. **Neural Networks**: Computational models inspired by the human brain\n            2. **Deep Learning**: ML using multi-layered neural networks\n            3. **Transformers**: Architecture that revolutionized NLP\n            \n            ## References\n            - Paper 1: "Attention Is All You Need"\n            - Paper 2: "BERT: Pre-training of Deep Bidirectional Transformers"\n            \n            ## Next Steps\n            - Review transformer architecture in detail\n            - Experiment with fine-tuning models\n            - Document findings\n            ', 'id': '10fb839a-dcd1-4839-9b50-d041b908ef1f', 'created_at': '2025-08-23T22:57:05.874000Z', 'last_modified': '2025-08-23T22:57:05.874000Z', 'version': 1, 'client_id': '1', 'deleted': False}, {'title': 'Test Note zil0s', 'content': '\n            # Research Notes\n            \n            ## Key Findings\n            - AI systems are becoming more sophisticated\n            - Natural language processing has made significant advances\n            - Machine learning models require large amounts of data\n            \n            ## Important Concepts\n            1. **Neural Networks**: Computational models inspired by the human brain\n            2. **Deep Learning**: ML using multi-layered neural networks\n            3. **Transformers**: Architecture that revolutionized NLP\n            \n            ## References\n            - Paper 1: "Attention Is All You Need"\n            - Paper 2: "BERT: Pre-training of Deep Bidirectional Transformers"\n            \n            ## Next Steps\n            - Review transformer architecture in detail\n            - Experiment with fine-tuning models\n            - Document findings\n            ', 'id': 'c26a5059-c669-45a8-bcad-02efe441fcfd', 'created_at': '2025-08-23T22:52:28.382000Z', 'last_modified': '2025-08-23T22:52:28.382000Z', 'version': 1, 'client_id': '1', 'deleted': False}])
FAILED tldw_Server_API/tests/e2e/test_full_user_workflow.py::TestFullUserWorkflow::test_42_update_note - httpx.HTTPStatusError: Client error '422 Unprocessable Entity' for url 'http://localhost:8000/api/v1/notes/04c0b5ca-61c9-4855-ba0f-fa40c6c0bccc'
For more information check: https://developer.mozilla.org/en-US/docs/Web/HTTP/Status/422
FAILED tldw_Server_API/tests/e2e/test_full_user_workflow.py::TestFullUserWorkflow::test_43_search_notes - assert ('results' in [{'title': 'Test Note zil0s', 'content': '\n            # Research Notes\n            \n            ## Key Findings\n            - AI systems are becoming more sophisticated\n            - Natural language processing has made significant advances\n            - Machine learning models require large amounts of data\n            \n            ## Important Concepts\n            1. **Neural Networks**: Computational models inspired by the human brain\n            2. **Deep Learning**: ML using multi-layered neural networks\n            3. **Transformers**: Architecture that revolutionized NLP\n            \n            ## References\n            - Paper 1: "Attention Is All You Need"\n            - Paper 2: "BERT: Pre-training of Deep Bidirectional Transformers"\n            \n            ## Next Steps\n            - Review transformer architecture in detail\n            - Experiment with fine-tuning models\n            - Document findings\n            ', 'id': 'c26a5059-c669-45a8-bcad-02efe441fcfd', 'created_at': '2025-08-23T22:52:28.382000Z', 'last_modified': '2025-08-23T22:52:28.382000Z', 'version': 1, 'client_id': '1', 'deleted': False}, {'title': 'Test Note yflut', 'content': '\n            # Research Notes\n            \n            ## Key Findings\n            - AI systems are becoming more sophisticated\n            - Natural language processing has made significant advances\n            - Machine learning models require large amounts of data\n            \n            ## Important Concepts\n            1. **Neural Networks**: Computational models inspired by the human brain\n            2. **Deep Learning**: ML using multi-layered neural networks\n            3. **Transformers**: Architecture that revolutionized NLP\n            \n            ## References\n            - Paper 1: "Attention Is All You Need"\n            - Paper 2: "BERT: Pre-training of Deep Bidirectional Transformers"\n            \n            ## Next Steps\n            - Review transformer architecture in detail\n            - Experiment with fine-tuning models\n            - Document findings\n            ', 'id': '10fb839a-dcd1-4839-9b50-d041b908ef1f', 'created_at': '2025-08-23T22:57:05.874000Z', 'last_modified': '2025-08-23T22:57:05.874000Z', 'version': 1, 'client_id': '1', 'deleted': False}, {'title': 'Test Note 9po3t', 'content': '\n            # Research Notes\n            \n            ## Key Findings\n            - AI systems are becoming more sophisticated\n            - Natural language processing has made significant advances\n            - Machine learning models require large amounts of data\n            \n            ## Important Concepts\n            1. **Neural Networks**: Computational models inspired by the human brain\n            2. **Deep Learning**: ML using multi-layered neural networks\n            3. **Transformers**: Architecture that revolutionized NLP\n            \n            ## References\n            - Paper 1: "Attention Is All You Need"\n            - Paper 2: "BERT: Pre-training of Deep Bidirectional Transformers"\n            \n            ## Next Steps\n            - Review transformer architecture in detail\n            - Experiment with fine-tuning models\n            - Document findings\n            ', 'id': '04c0b5ca-61c9-4855-ba0f-fa40c6c0bccc', 'created_at': '2025-08-24T00:18:31.347000Z', 'last_modified': '2025-08-24T00:18:31.347000Z', 'version': 1, 'client_id': '1', 'deleted': False}] or 'items' in [{'title': 'Test Note zil0s', 'content': '\n            # Research Notes\n            \n            ## Key Findings\n            - AI systems are becoming more sophisticated\n            - Natural language processing has made significant advances\n            - Machine learning models require large amounts of data\n            \n            ## Important Concepts\n            1. **Neural Networks**: Computational models inspired by the human brain\n            2. **Deep Learning**: ML using multi-layered neural networks\n            3. **Transformers**: Architecture that revolutionized NLP\n            \n            ## References\n            - Paper 1: "Attention Is All You Need"\n            - Paper 2: "BERT: Pre-training of Deep Bidirectional Transformers"\n            \n            ## Next Steps\n            - Review transformer architecture in detail\n            - Experiment with fine-tuning models\n            - Document findings\n            ', 'id': 'c26a5059-c669-45a8-bcad-02efe441fcfd', 'created_at': '2025-08-23T22:52:28.382000Z', 'last_modified': '2025-08-23T22:52:28.382000Z', 'version': 1, 'client_id': '1', 'deleted': False}, {'title': 'Test Note yflut', 'content': '\n            # Research Notes\n            \n            ## Key Findings\n            - AI systems are becoming more sophisticated\n            - Natural language processing has made significant advances\n            - Machine learning models require large amounts of data\n            \n            ## Important Concepts\n            1. **Neural Networks**: Computational models inspired by the human brain\n            2. **Deep Learning**: ML using multi-layered neural networks\n            3. **Transformers**: Architecture that revolutionized NLP\n            \n            ## References\n            - Paper 1: "Attention Is All You Need"\n            - Paper 2: "BERT: Pre-training of Deep Bidirectional Transformers"\n            \n            ## Next Steps\n            - Review transformer architecture in detail\n            - Experiment with fine-tuning models\n            - Document findings\n            ', 'id': '10fb839a-dcd1-4839-9b50-d041b908ef1f', 'created_at': '2025-08-23T22:57:05.874000Z', 'last_modified': '2025-08-23T22:57:05.874000Z', 'version': 1, 'client_id': '1', 'deleted': False}, {'title': 'Test Note 9po3t', 'content': '\n            # Research Notes\n            \n            ## Key Findings\n            - AI systems are becoming more sophisticated\n            - Natural language processing has made significant advances\n            - Machine learning models require large amounts of data\n            \n            ## Important Concepts\n            1. **Neural Networks**: Computational models inspired by the human brain\n            2. **Deep Learning**: ML using multi-layered neural networks\n            3. **Transformers**: Architecture that revolutionized NLP\n            \n            ## References\n            - Paper 1: "Attention Is All You Need"\n            - Paper 2: "BERT: Pre-training of Deep Bidirectional Transformers"\n            \n            ## Next Steps\n            - Review transformer architecture in detail\n            - Experiment with fine-tuning models\n            - Document findings\n            ', 'id': '04c0b5ca-61c9-4855-ba0f-fa40c6c0bccc', 'created_at': '2025-08-24T00:18:31.347000Z', 'last_modified': '2025-08-24T00:18:31.347000Z', 'version': 1, 'client_id': '1', 'deleted': False}] or 'notes' in [{'title': 'Test Note zil0s', 'content': '\n            # Research Notes\n            \n            ## Key Findings\n            - AI systems are becoming more sophisticated\n            - Natural language processing has made significant advances\n            - Machine learning models require large amounts of data\n            \n            ## Important Concepts\n            1. **Neural Networks**: Computational models inspired by the human brain\n            2. **Deep Learning**: ML using multi-layered neural networks\n            3. **Transformers**: Architecture that revolutionized NLP\n            \n            ## References\n            - Paper 1: "Attention Is All You Need"\n            - Paper 2: "BERT: Pre-training of Deep Bidirectional Transformers"\n            \n            ## Next Steps\n            - Review transformer architecture in detail\n            - Experiment with fine-tuning models\n            - Document findings\n            ', 'id': 'c26a5059-c669-45a8-bcad-02efe441fcfd', 'created_at': '2025-08-23T22:52:28.382000Z', 'last_modified': '2025-08-23T22:52:28.382000Z', 'version': 1, 'client_id': '1', 'deleted': False}, {'title': 'Test Note yflut', 'content': '\n            # Research Notes\n            \n            ## Key Findings\n            - AI systems are becoming more sophisticated\n            - Natural language processing has made significant advances\n            - Machine learning models require large amounts of data\n            \n            ## Important Concepts\n            1. **Neural Networks**: Computational models inspired by the human brain\n            2. **Deep Learning**: ML using multi-layered neural networks\n            3. **Transformers**: Architecture that revolutionized NLP\n            \n            ## References\n            - Paper 1: "Attention Is All You Need"\n            - Paper 2: "BERT: Pre-training of Deep Bidirectional Transformers"\n            \n            ## Next Steps\n            - Review transformer architecture in detail\n            - Experiment with fine-tuning models\n            - Document findings\n            ', 'id': '10fb839a-dcd1-4839-9b50-d041b908ef1f', 'created_at': '2025-08-23T22:57:05.874000Z', 'last_modified': '2025-08-23T22:57:05.874000Z', 'version': 1, 'client_id': '1', 'deleted': False}, {'title': 'Test Note 9po3t', 'content': '\n            # Research Notes\n            \n            ## Key Findings\n            - AI systems are becoming more sophisticated\n            - Natural language processing has made significant advances\n            - Machine learning models require large amounts of data\n            \n            ## Important Concepts\n            1. **Neural Networks**: Computational models inspired by the human brain\n            2. **Deep Learning**: ML using multi-layered neural networks\n            3. **Transformers**: Architecture that revolutionized NLP\n            \n            ## References\n            - Paper 1: "Attention Is All You Need"\n            - Paper 2: "BERT: Pre-training of Deep Bidirectional Transformers"\n            \n            ## Next Steps\n            - Review transformer architecture in detail\n            - Experiment with fine-tuning models\n            - Document findings\n            ', 'id': '04c0b5ca-61c9-4855-ba0f-fa40c6c0bccc', 'created_at': '2025-08-24T00:18:31.347000Z', 'last_modified': '2025-08-24T00:18:31.347000Z', 'version': 1, 'client_id': '1', 'deleted': False}])
FAILED tldw_Server_API/tests/e2e/test_full_user_workflow.py::TestFullUserWorkflow::test_50_create_prompt - httpx.HTTPStatusError: Client error '401 Unauthorized' for url 'http://localhost:8000/api/v1/prompts/'
For more information check: https://developer.mozilla.org/en-US/docs/Web/HTTP/Status/401
FAILED tldw_Server_API/tests/e2e/test_full_user_workflow.py::TestFullUserWorkflow::test_51_list_prompts - httpx.HTTPStatusError: Client error '401 Unauthorized' for url 'http://localhost:8000/api/v1/prompts/'
For more information check: https://developer.mozilla.org/en-US/docs/Web/HTTP/Status/401
=================== 8 failed, 19 passed, 5 skipped in 1.38s ====================
